<mxfile host="app.diagrams.net" modified="2021-12-06T17:53:51.585Z" agent="5.0 (Windows NT 10.0; Win64; x64) AppleWebKit/537.36 (KHTML, like Gecko) Chrome/96.0.4664.45 Safari/537.36" etag="MoV5QItTzpvhJ3MnGHlx" version="15.8.9" type="github">
  <diagram id="A9IvzN3skbX8_dLwJ8Ff" name="Page-1">
    <mxGraphModel dx="868" dy="496" grid="1" gridSize="10" guides="1" tooltips="1" connect="1" arrows="1" fold="1" page="1" pageScale="1" pageWidth="1169" pageHeight="827" math="0" shadow="0">
      <root>
        <mxCell id="0" />
        <mxCell id="1" parent="0" />
        <mxCell id="p9hI8x5emS8XPD6nYcfe-3" style="edgeStyle=orthogonalEdgeStyle;rounded=0;orthogonalLoop=1;jettySize=auto;html=1;exitX=1;exitY=0.5;exitDx=0;exitDy=0;entryX=0;entryY=0.5;entryDx=0;entryDy=0;endArrow=none;endFill=0;" edge="1" parent="1" source="p9hI8x5emS8XPD6nYcfe-1" target="p9hI8x5emS8XPD6nYcfe-2">
          <mxGeometry relative="1" as="geometry" />
        </mxCell>
        <mxCell id="p9hI8x5emS8XPD6nYcfe-4" value="n" style="edgeLabel;html=1;align=center;verticalAlign=middle;resizable=0;points=[];" vertex="1" connectable="0" parent="p9hI8x5emS8XPD6nYcfe-3">
          <mxGeometry x="-0.8857" y="-1" relative="1" as="geometry">
            <mxPoint x="4" as="offset" />
          </mxGeometry>
        </mxCell>
        <mxCell id="p9hI8x5emS8XPD6nYcfe-5" value="1" style="edgeLabel;html=1;align=center;verticalAlign=middle;resizable=0;points=[];" vertex="1" connectable="0" parent="p9hI8x5emS8XPD6nYcfe-3">
          <mxGeometry x="0.8381" y="-3" relative="1" as="geometry">
            <mxPoint x="4" as="offset" />
          </mxGeometry>
        </mxCell>
        <mxCell id="p9hI8x5emS8XPD6nYcfe-1" value="Jogador" style="whiteSpace=wrap;html=1;align=center;" vertex="1" parent="1">
          <mxGeometry x="210" y="160" width="100" height="40" as="geometry" />
        </mxCell>
        <mxCell id="p9hI8x5emS8XPD6nYcfe-2" value="Equipe" style="whiteSpace=wrap;html=1;align=center;" vertex="1" parent="1">
          <mxGeometry x="520" y="160" width="100" height="40" as="geometry" />
        </mxCell>
      </root>
    </mxGraphModel>
  </diagram>
</mxfile>
